# xmcd
#
# Track frame offsets:
#	150
#	17335
#	31090
#	49912
#	70472
#	90000
#	108500
#	124742
#	144220
#	164430
#
# Disc length: 2446 seconds
#
# Revision: 0
# Processed by: cddbd v1.4PL0 Copyright (c) Steve Scherf et al.
# Submitted via: audiograbber 1.82.02
#
DISCID=75098c0a
DTITLE=Gülhan - Aynýyýz Seninle
DYEAR=2003
DGENRE=Pop
TTITLE0=Geliyorum Yoldayim
TTITLE1=Yansin Bu Dünya
TTITLE2=Bak Ve Söyle
TTITLE3=Söz Vermiþtin
TTITLE4=Ateþe Atmalý
TTITLE5=Neydi
TTITLE6=Ayniyiz seninle
TTITLE7=Kimdi Kacan
TTITLE8=Cadi Kazaný
TTITLE9=Ýlk defa
EXTD=metin@metin.nom.tr
EXTT0=
EXTT1=
EXTT2=
EXTT3=
EXTT4=
EXTT5=
EXTT6=
EXTT7=
EXTT8=
EXTT9=
PLAYORDER=
